<svg xmlns="http://www.w3.org/2000/svg" enable-background="new 0 0 64 64" viewBox="0 0 64 64"><path d="M56.1,11.92H44.51v-0.24c0-4.36-3.54-7.9-7.9-7.9h-9.21c-4.36,0-7.9,3.55-7.9,7.9v0.24H7.9c-4.36,0-7.9,3.55-7.9,7.9v32.5
		c0,4.36,3.54,7.9,7.9,7.9h48.2c4.36,0,7.9-3.54,7.9-7.9v-32.5C64,15.46,60.46,11.92,56.1,11.92z M21.86,11.68
		c0-3.05,2.48-5.53,5.53-5.53h9.21c3.05,0,5.53,2.48,5.53,5.53v0.24H21.86V11.68z M7.9,14.29h48.2c3.05,0,5.53,2.48,5.53,5.53v10.88
		H37.98v-2.39c0-0.65-0.53-1.18-1.18-1.18h-9.58c-0.66,0-1.18,0.53-1.18,1.18v2.39H2.37V19.82C2.37,16.77,4.85,14.29,7.9,14.29z
		 M35.61,29.5v4.77h-7.21V29.5H35.61z M56.1,57.86H7.9c-3.05,0-5.53-2.48-5.53-5.53V33.07h23.65v2.39c0,0.66,0.53,1.18,1.18,1.18
		h9.58c0.65,0,1.18-0.53,1.18-1.18v-2.39h23.65v19.25C61.63,55.37,59.15,57.86,56.1,57.86z"/></svg>