<svg xmlns="http://www.w3.org/2000/svg" width="64" height="64"><path d="m 17.272729,967.81668 c -4.016738,0 -7.272731,3.25599 -7.272731,7.27273 l 0,10.90908 0,10.90914 0,3.63627 0,3.6365 0,3.6362 0,10.9092 0,10.9092 c 0,4.0182 3.255993,7.2727 7.272731,7.2727 l 32.727278,0 32.72726,0 c 4.018195,0 7.272735,-3.2545 7.272735,-7.2727 l 0,-10.9092 0,-14.5454 0,-7.27277 0,-10.90914 0,-10.90908 c 0,-4.01674 -3.25454,-7.27273 -7.272735,-7.27273 l -32.72726,0 -32.727278,0 z m 3.636356,11.36362 18.181817,10.45462 -18.181817,10.45438 0,-4.09082 10.909087,-6.36356 -10.909087,-6.3637 0,-4.09092 z m 18.181817,17.72733 18.181817,0 0,3.63627 -18.181817,0 0,-3.63627 z" transform="translate(0 -952.362)"/></svg>