<svg xmlns="http://www.w3.org/2000/svg" enable-background="new 0 0 24 24" viewBox="0 0 24 24"><path d="M11.999,24c-1.499,0-9.696-4.71-10.441-6C0.813,16.715,0.812,7.295,1.557,6.001C2.297,4.711,10.495,0,11.999,0c1.491,0,9.688,4.708,10.441,5.998c0.752,1.287,0.753,10.71,0.001,12.004C21.691,19.291,13.494,24,11.999,24z M11.999,1c-1.14,0-9.015,4.522-9.575,5.499c-0.563,0.98-0.564,10.027-0.001,11c0.564,0.977,8.44,5.5,9.576,5.5c1.133,0,9.01-4.524,9.577-5.501c0.569-0.979,0.57-10.022,0.001-10.996C21.006,5.525,13.129,1,11.999,1z"/><path d="M14.84,19.915L14.84,19.915c-0.551-0.005-2.133-1.753-2.258-2.054c-0.078-0.188-0.038-0.471,0.106-0.614c0.126-0.126,0.27-0.179,0.685-0.208c0.005-1.102,0.024-2.536,0.039-3.342h-2.807c-0.002,0.614,0.003,1.657,0.065,2.891c0.014,0.241-0.05,0.438-0.189,0.584c-0.138,0.145-0.332,0.219-0.577,0.219c-0.002,0-0.004,0-0.007,0l-1.437-0.004c-0.241,0-0.434-0.073-0.572-0.216c-0.141-0.145-0.208-0.342-0.2-0.586l0.012-0.4c0.046-1.568,0.114-3.923-0.012-9.227C7.26,6.925,7.127,6.868,7.01,6.75C6.867,6.608,6.826,6.331,6.903,6.145C7.036,5.821,8.66,4.083,9.187,4.083c0.521,0,2.14,1.737,2.273,2.06c0.077,0.188,0.036,0.466-0.107,0.609c-0.116,0.115-0.247,0.172-0.673,0.206c-0.059,0.901-0.071,2.219-0.081,3.302c-0.003,0.289-0.006,0.563-0.009,0.811h2.796c0.001-0.631-0.006-1.793-0.059-3.405c-0.007-0.23,0.057-0.417,0.189-0.555c0.088-0.092,0.246-0.202,0.503-0.206c0.529-0.004,1.058-0.005,1.584-0.003c0.264,0.001,0.426,0.111,0.516,0.203c0.134,0.137,0.199,0.325,0.195,0.558c-0.13,6.719-0.082,8.041-0.051,8.916c0.006,0.158,0.011,0.303,0.015,0.461c0.474,0.036,0.578,0.092,0.692,0.203c0.146,0.143,0.188,0.426,0.108,0.615c-0.124,0.299-1.689,2.045-2.234,2.057l0,0C14.845,19.915,14.842,19.915,14.84,19.915z M13.97,18.007c0.288,0.294,0.64,0.624,0.867,0.812c0.225-0.188,0.573-0.518,0.857-0.812c-0.234-0.042-0.411-0.247-0.411-0.492c0-0.371-0.009-0.612-0.019-0.9c-0.032-0.874-0.079-2.19,0.045-8.713c-0.325,0-0.649,0-0.974,0.002c0.058,1.909,0.051,3.145,0.048,3.563v0.104c0,0.276-0.224,0.5-0.5,0.5h-3.803c-0.135,0-0.264-0.054-0.357-0.15c-0.095-0.097-0.146-0.227-0.143-0.361c0.008-0.348,0.013-0.805,0.018-1.309C9.61,9.009,9.625,7.463,9.707,6.584L9.705,6.483c0-0.229,0.155-0.424,0.367-0.482C9.778,5.702,9.417,5.366,9.186,5.177c-0.23,0.188-0.592,0.522-0.888,0.82C8.519,6.05,8.681,6.248,8.681,6.483v0.149c0.137,5.54,0.065,7.973,0.02,9.583l-0.006,0.173L9.66,16.39c-0.063-1.407-0.057-2.527-0.054-3.021l0.001-0.171c0-0.276,0.224-0.5,0.5-0.5h3.787c0.276,0,0.5,0.224,0.5,0.5c0.016,0.146,0.022,0.209,0.021,0.284c-0.017,0.829-0.044,2.809-0.044,4.036C14.372,17.759,14.2,17.962,13.97,18.007z M9.369,5.043L9.369,5.043L9.369,5.043z"/></svg>